<svg id="visual" viewBox="0 0 900 600" width="900" height="600" xmlns="http://www.w3.org/2000/svg" xmlns:xlink="http://www.w3.org/1999/xlink" version="1.1"><path d="M0 43L13.7 46C27.3 49 54.7 55 82 56C109.3 57 136.7 53 163.8 59C191 65 218 81 245.2 89C272.3 97 299.7 97 327 96C354.3 95 381.7 93 409 87C436.3 81 463.7 71 491 66C518.3 61 545.7 61 573 61C600.3 61 627.7 61 654.8 66C682 71 709 81 736.2 85C763.3 89 790.7 87 818 84C845.3 81 872.7 77 886.3 75L900 73L900 0L886.3 0C872.7 0 845.3 0 818 0C790.7 0 763.3 0 736.2 0C709 0 682 0 654.8 0C627.7 0 600.3 0 573 0C545.7 0 518.3 0 491 0C463.7 0 436.3 0 409 0C381.7 0 354.3 0 327 0C299.7 0 272.3 0 245.2 0C218 0 191 0 163.8 0C136.7 0 109.3 0 82 0C54.7 0 27.3 0 13.7 0L0 0Z" fill="#377ebb"></path><path d="M0 127L13.7 130C27.3 133 54.7 139 82 137C109.3 135 136.7 125 163.8 132C191 139 218 163 245.2 175C272.3 187 299.7 187 327 179C354.3 171 381.7 155 409 154C436.3 153 463.7 167 491 164C518.3 161 545.7 141 573 130C600.3 119 627.7 117 654.8 126C682 135 709 155 736.2 159C763.3 163 790.7 151 818 143C845.3 135 872.7 131 886.3 129L900 127L900 71L886.3 73C872.7 75 845.3 79 818 82C790.7 85 763.3 87 736.2 83C709 79 682 69 654.8 64C627.7 59 600.3 59 573 59C545.7 59 518.3 59 491 64C463.7 69 436.3 79 409 85C381.7 91 354.3 93 327 94C299.7 95 272.3 95 245.2 87C218 79 191 63 163.8 57C136.7 51 109.3 55 82 54C54.7 53 27.3 47 13.7 44L0 41Z" fill="#60b3f8"></path><path d="M0 397L13.7 385C27.3 373 54.7 349 82 331C109.3 313 136.7 301 163.8 313C191 325 218 361 245.2 366C272.3 371 299.7 345 327 332C354.3 319 381.7 319 409 325C436.3 331 463.7 343 491 343C518.3 343 545.7 331 573 315C600.3 299 627.7 279 654.8 279C682 279 709 299 736.2 296C763.3 293 790.7 267 818 265C845.3 263 872.7 285 886.3 296L900 307L900 125L886.3 127C872.7 129 845.3 133 818 141C790.7 149 763.3 161 736.2 157C709 153 682 133 654.8 124C627.7 115 600.3 117 573 128C545.7 139 518.3 159 491 162C463.7 165 436.3 151 409 152C381.7 153 354.3 169 327 177C299.7 185 272.3 185 245.2 173C218 161 191 137 163.8 130C136.7 123 109.3 133 82 135C54.7 137 27.3 131 13.7 128L0 125Z" fill="#8bc6f9"></path><path d="M0 469L13.7 465C27.3 461 54.7 453 82 447C109.3 441 136.7 437 163.8 442C191 447 218 461 245.2 462C272.3 463 299.7 451 327 442C354.3 433 381.7 427 409 427C436.3 427 463.7 433 491 443C518.3 453 545.7 467 573 464C600.3 461 627.7 441 654.8 428C682 415 709 409 736.2 404C763.3 399 790.7 395 818 403C845.3 411 872.7 431 886.3 441L900 451L900 305L886.3 294C872.7 283 845.3 261 818 263C790.7 265 763.3 291 736.2 294C709 297 682 277 654.8 277C627.7 277 600.3 297 573 313C545.7 329 518.3 341 491 341C463.7 341 436.3 329 409 323C381.7 317 354.3 317 327 330C299.7 343 272.3 369 245.2 364C218 359 191 323 163.8 311C136.7 299 109.3 311 82 329C54.7 347 27.3 371 13.7 383L0 395Z" fill="#60b3f8"></path><path d="M0 601L13.7 601C27.3 601 54.7 601 82 601C109.3 601 136.7 601 163.8 601C191 601 218 601 245.2 601C272.3 601 299.7 601 327 601C354.3 601 381.7 601 409 601C436.3 601 463.7 601 491 601C518.3 601 545.7 601 573 601C600.3 601 627.7 601 654.8 601C682 601 709 601 736.2 601C763.3 601 790.7 601 818 601C845.3 601 872.7 601 886.3 601L900 601L900 449L886.3 439C872.7 429 845.3 409 818 401C790.7 393 763.3 397 736.2 402C709 407 682 413 654.8 426C627.7 439 600.3 459 573 462C545.7 465 518.3 451 491 441C463.7 431 436.3 425 409 425C381.7 425 354.3 431 327 440C299.7 449 272.3 461 245.2 460C218 459 191 445 163.8 440C136.7 435 109.3 439 82 445C54.7 451 27.3 459 13.7 463L0 467Z" fill="#377ebb"></path></svg>